<?xml version="1.0" encoding="utf-8"?>
<!-- Generator: Adobe Illustrator 21.0.0, SVG Export Plug-In . SVG Version: 6.00 Build 0)  -->
<svg version="1.1" id="Réteg_1" xmlns="http://www.w3.org/2000/svg" xmlns:xlink="http://www.w3.org/1999/xlink" x="0px" y="0px"
	 viewBox="0 0 182.7 120" style="enable-background:new 0 0 182.7 120;" xml:space="preserve">
<style type="text/css">
	.st0{fill-rule:evenodd;clip-rule:evenodd;fill:#0574AE;}
</style>
<path class="st0" d="M12,31.8c1,40.6,20.7,61.3,56.4,88.2C-1,108.7-11.4,58.3,12,31.8 M113.2,0c23,15.6,59.5,42.7,58,88
	C204.2,47.9,160.9,7.9,113.2,0 M46.5,7.2C-8.3,38.5,75,143.3,134.2,113.9C199.4,81.4,101.5-24.3,46.5,7.2 M58.9,58.5
	c-15.8,9.1,0.5,32.3,28.3,20.8C67,78.7,55.2,72.4,58.9,58.5 M61.5,36.5C42.2,34.2,45.1,57,57.7,57.4C50.1,50.8,52.3,38.4,61.5,36.5
	 M105.1,20.8c-6-16-31.9-10.9-29.8,3.9C80.4,14.2,95.3,12.9,105.1,20.8 M73.1,25.6c-16.6-4.5-14.7,8.2-9.6,9.5
	C62.6,27.8,64.8,26.9,73.1,25.6 M127.3,38.6c6.2-18.9-12.3-27.2-21.8-16.9C121.7,19.9,124.5,26.5,127.3,38.6 M130.7,61.1
	c14.3-3.8,9.4-21-3.6-20.5C134.8,44.2,137.1,54.9,130.7,61.1 M99.3,79.8c15,9.9,41.7-1.6,31.7-17C129.6,75.2,116.9,80.7,99.3,79.8
	 M99.7,50.6c0-3.4-2.8-6.2-6.3-6.2c-3.5,0-6.3,2.8-6.3,6.2c0,3.4,2.8,6.2,6.3,6.2C96.9,56.8,99.7,54,99.7,50.6 M83.5,58.3
	c7.3,10.1,5.6,21.5,5.5,33.5c6.8,0,0.4,0.2,8.3,0.1c0-14.6-1-23.3,6.2-33.5c-7.1,2.8-7.7,7.2-10.1,9.7
	C91.9,65.7,89.8,61.3,83.5,58.3 M53.4,105.5c16.7-3.2,32.4-9.8,37.2,2c6.8,0-0.7,0,6,0.1c6.7-14.1,28.7-3,35.7,0.7
	c-1.1-12.4-32.6-18.7-38.7-10.8C87.1,89.3,62.2,95.8,53.4,105.5"/>
</svg>
